<svg width="94" height="15" viewBox="0 0 94 15" fill="none" xmlns="http://www.w3.org/2000/svg">
<path d="M2.56309 14H0.4665L5.17744 0.909091H7.4594L12.1703 14H10.0737L6.37275 3.28693H6.27048L2.56309 14ZM2.91465 8.87358H9.71579V10.5355H2.91465V8.87358ZM17.1546 14.1918C16.362 14.1918 15.6546 13.9893 15.0324 13.5845C14.4145 13.1754 13.9287 12.5937 13.5751 11.8395C13.2256 11.081 13.0509 10.1712 13.0509 9.11009C13.0509 8.04901 13.2278 7.14133 13.5814 6.38707C13.9394 5.63281 14.4295 5.0554 15.0516 4.65483C15.6738 4.25426 16.379 4.05398 17.1674 4.05398C17.7768 4.05398 18.2668 4.15625 18.6376 4.3608C19.0126 4.56108 19.3023 4.79545 19.5069 5.06392C19.7157 5.33239 19.8776 5.56889 19.9927 5.77344H20.1077V0.909091H22.0189V14H20.1525V12.4723H19.9927C19.8776 12.6811 19.7114 12.9197 19.4941 13.1882C19.281 13.4567 18.987 13.6911 18.612 13.8913C18.237 14.0916 17.7512 14.1918 17.1546 14.1918ZM17.5765 12.5618C18.1262 12.5618 18.5907 12.4169 18.9699 12.1271C19.3535 11.8331 19.6432 11.4261 19.8393 10.9062C20.0395 10.3864 20.1397 9.78125 20.1397 9.09091C20.1397 8.40909 20.0417 7.8125 19.8456 7.30114C19.6496 6.78977 19.362 6.39133 18.9827 6.10582C18.6035 5.82031 18.1347 5.67756 17.5765 5.67756C17.0012 5.67756 16.5218 5.8267 16.1383 6.125C15.7547 6.4233 15.465 6.83026 15.2689 7.34588C15.0772 7.86151 14.9813 8.44318 14.9813 9.09091C14.9813 9.74716 15.0793 10.3374 15.2753 10.8615C15.4714 11.3857 15.7611 11.8011 16.1447 12.108C16.5324 12.4105 17.0097 12.5618 17.5765 12.5618ZM28.1522 14.1918C27.3596 14.1918 26.6522 13.9893 26.03 13.5845C25.4121 13.1754 24.9263 12.5937 24.5726 11.8395C24.2232 11.081 24.0485 10.1712 24.0485 9.11009C24.0485 8.04901 24.2253 7.14133 24.579 6.38707C24.937 5.63281 25.427 5.0554 26.0492 4.65483C26.6714 4.25426 27.3766 4.05398 28.165 4.05398C28.7743 4.05398 29.2644 4.15625 29.6351 4.3608C30.0101 4.56108 30.2999 4.79545 30.5044 5.06392C30.7133 5.33239 30.8752 5.56889 30.9902 5.77344H31.1053V0.909091H33.0165V14H31.15V12.4723H30.9902C30.8752 12.6811 30.709 12.9197 30.4917 13.1882C30.2786 13.4567 29.9846 13.6911 29.6096 13.8913C29.2346 14.0916 28.7488 14.1918 28.1522 14.1918ZM28.5741 12.5618C29.1238 12.5618 29.5883 12.4169 29.9675 12.1271C30.351 11.8331 30.6408 11.4261 30.8368 10.9062C31.0371 10.3864 31.1373 9.78125 31.1373 9.09091C31.1373 8.40909 31.0392 7.8125 30.8432 7.30114C30.6472 6.78977 30.3596 6.39133 29.9803 6.10582C29.601 5.82031 29.1323 5.67756 28.5741 5.67756C27.9988 5.67756 27.5194 5.8267 27.1358 6.125C26.7523 6.4233 26.4625 6.83026 26.2665 7.34588C26.0748 7.86151 25.9789 8.44318 25.9789 9.09091C25.9789 9.74716 26.0769 10.3374 26.2729 10.8615C26.4689 11.3857 26.7587 11.8011 27.1422 12.108C27.53 12.4105 28.0073 12.5618 28.5741 12.5618ZM44.5511 4.18182V5.71591H39.1882V4.18182H44.5511ZM40.6264 1.82955H42.5376V11.1172C42.5376 11.4879 42.593 11.767 42.7038 11.9545C42.8146 12.1378 42.9573 12.2635 43.1321 12.3317C43.311 12.3956 43.5049 12.4276 43.7137 12.4276C43.8671 12.4276 44.0014 12.4169 44.1164 12.3956C44.2315 12.3743 44.321 12.3572 44.3849 12.3445L44.7301 13.9233C44.6193 13.9659 44.4616 14.0085 44.2571 14.0511C44.0525 14.098 43.7968 14.1236 43.49 14.1278C42.9872 14.1364 42.5184 14.0469 42.0838 13.8594C41.6491 13.6719 41.2975 13.3821 41.0291 12.9901C40.7606 12.598 40.6264 12.1058 40.6264 11.5135V1.82955ZM50.4255 14.1982C49.505 14.1982 48.7017 13.9872 48.0157 13.5653C47.3296 13.1435 46.7969 12.5533 46.4176 11.7947C46.0384 11.0362 45.8487 10.1499 45.8487 9.13565C45.8487 8.11719 46.0384 7.22656 46.4176 6.46378C46.7969 5.70099 47.3296 5.10866 48.0157 4.68679C48.7017 4.26491 49.505 4.05398 50.4255 4.05398C51.3459 4.05398 52.1492 4.26491 52.8353 4.68679C53.5213 5.10866 54.054 5.70099 54.4333 6.46378C54.8125 7.22656 55.0022 8.11719 55.0022 9.13565C55.0022 10.1499 54.8125 11.0362 54.4333 11.7947C54.054 12.5533 53.5213 13.1435 52.8353 13.5653C52.1492 13.9872 51.3459 14.1982 50.4255 14.1982ZM50.4318 12.5938C51.0284 12.5938 51.5228 12.4361 51.9148 12.1207C52.3068 11.8054 52.5966 11.3857 52.7841 10.8615C52.9759 10.3374 53.0718 9.75994 53.0718 9.12926C53.0718 8.50284 52.9759 7.92756 52.7841 7.40341C52.5966 6.875 52.3068 6.45099 51.9148 6.13139C51.5228 5.81179 51.0284 5.65199 50.4318 5.65199C49.831 5.65199 49.3324 5.81179 48.9361 6.13139C48.5441 6.45099 48.2522 6.875 48.0604 7.40341C47.8729 7.92756 47.7791 8.50284 47.7791 9.12926C47.7791 9.75994 47.8729 10.3374 48.0604 10.8615C48.2522 11.3857 48.5441 11.8054 48.9361 12.1207C49.3324 12.4361 49.831 12.5938 50.4318 12.5938ZM65.4948 14.1982C64.5445 14.1982 63.7264 13.983 63.0403 13.5526C62.3585 13.1179 61.8343 12.5192 61.4678 11.7564C61.1014 10.9936 60.9181 10.12 60.9181 9.13565C60.9181 8.13849 61.1056 7.25852 61.4806 6.49574C61.8556 5.72869 62.384 5.12997 63.0658 4.69957C63.7477 4.26918 64.5509 4.05398 65.4756 4.05398C66.2214 4.05398 66.8862 4.19247 67.47 4.46946C68.0538 4.74219 68.5247 5.12571 68.8826 5.62003C69.2448 6.11435 69.46 6.69176 69.5282 7.35227H67.6681C67.5658 6.89205 67.3315 6.49574 66.965 6.16335C66.6028 5.83097 66.117 5.66477 65.5076 5.66477C64.9749 5.66477 64.5083 5.8054 64.1078 6.08665C63.7114 6.36364 63.4025 6.75994 63.1809 7.27557C62.9593 7.78693 62.8485 8.39205 62.8485 9.09091C62.8485 9.80682 62.9572 10.4247 63.1745 10.9446C63.3918 11.4645 63.6987 11.8672 64.095 12.1527C64.4955 12.4382 64.9664 12.581 65.5076 12.581C65.8698 12.581 66.198 12.5149 66.492 12.3828C66.7903 12.2464 67.0396 12.0526 67.2399 11.8011C67.4444 11.5497 67.5872 11.2472 67.6681 10.8935H69.5282C69.46 11.5284 69.2533 12.0952 68.9082 12.5938C68.563 13.0923 68.1006 13.4844 67.5211 13.7699C66.9458 14.0554 66.2704 14.1982 65.4948 14.1982ZM74.1593 14.2173C73.5371 14.2173 72.9746 14.1023 72.4718 13.8722C71.969 13.6378 71.5705 13.299 71.2765 12.8558C70.9867 12.4126 70.8418 11.8693 70.8418 11.2259C70.8418 10.6719 70.9484 10.2159 71.1614 9.85795C71.3745 9.5 71.6621 9.21662 72.0244 9.00781C72.3866 8.79901 72.7914 8.64134 73.2388 8.5348C73.6863 8.42827 74.1423 8.3473 74.6067 8.2919C75.1948 8.22372 75.6721 8.16832 76.0386 8.12571C76.405 8.07884 76.6714 8.00426 76.8376 7.90199C77.0038 7.79972 77.0869 7.63352 77.0869 7.40341V7.35866C77.0869 6.80043 76.9292 6.3679 76.6138 6.06108C76.3028 5.75426 75.8383 5.60085 75.2204 5.60085C74.5769 5.60085 74.0698 5.74361 73.6991 6.02912C73.3326 6.31037 73.079 6.62358 72.9384 6.96875L71.1423 6.55966C71.3553 5.96307 71.6664 5.48153 72.0755 5.11506C72.4888 4.74432 72.964 4.47585 73.5009 4.30966C74.0379 4.1392 74.6025 4.05398 75.1948 4.05398C75.5869 4.05398 76.0023 4.10085 76.4413 4.1946C76.8844 4.28409 77.2978 4.45028 77.6813 4.69318C78.0691 4.93608 78.3866 5.28338 78.6337 5.73509C78.8809 6.18253 79.0045 6.7642 79.0045 7.48011V14H77.138V12.6577H77.0613C76.9377 12.9048 76.7523 13.1477 76.5052 13.3864C76.258 13.625 75.9406 13.8232 75.5528 13.9808C75.165 14.1385 74.7005 14.2173 74.1593 14.2173ZM74.5748 12.6832C75.1032 12.6832 75.5549 12.5788 75.9299 12.37C76.3092 12.1612 76.5968 11.8885 76.7928 11.5518C76.9931 11.2109 77.0933 10.8466 77.0933 10.4588V9.19318C77.0251 9.26136 76.893 9.32528 76.6969 9.38494C76.5052 9.44034 76.2857 9.48935 76.0386 9.53196C75.7914 9.57031 75.5506 9.60653 75.3163 9.64062C75.0819 9.67045 74.8859 9.69602 74.7282 9.71733C74.3575 9.7642 74.0187 9.84304 73.7119 9.95384C73.4093 10.0646 73.1664 10.2244 72.9832 10.4332C72.8042 10.6378 72.7147 10.9105 72.7147 11.2514C72.7147 11.7244 72.8894 12.0824 73.2388 12.3253C73.5883 12.5639 74.0336 12.6832 74.5748 12.6832ZM81.2801 14V4.18182H83.1274V5.74148H83.2297C83.4087 5.21307 83.724 4.79758 84.1757 4.49503C84.6317 4.18821 85.1473 4.0348 85.7226 4.0348C85.8419 4.0348 85.9825 4.03906 86.1445 4.04759C86.3106 4.05611 86.4406 4.06676 86.5344 4.07955V5.90767C86.4577 5.88636 86.3213 5.86293 86.1253 5.83736C85.9293 5.80753 85.7332 5.79261 85.5372 5.79261C85.0855 5.79261 84.6828 5.88849 84.3291 6.08026C83.9797 6.26776 83.7027 6.52983 83.4981 6.86648C83.2936 7.19886 83.1913 7.57812 83.1913 8.00426V14H81.2801ZM93.0815 4.18182V5.71591H87.7186V4.18182H93.0815ZM89.1568 1.82955H91.068V11.1172C91.068 11.4879 91.1234 11.767 91.2342 11.9545C91.345 12.1378 91.4877 12.2635 91.6624 12.3317C91.8414 12.3956 92.0353 12.4276 92.2441 12.4276C92.3975 12.4276 92.5318 12.4169 92.6468 12.3956C92.7619 12.3743 92.8514 12.3572 92.9153 12.3445L93.2605 13.9233C93.1497 13.9659 92.992 14.0085 92.7874 14.0511C92.5829 14.098 92.3272 14.1236 92.0204 14.1278C91.5176 14.1364 91.0488 14.0469 90.6142 13.8594C90.1795 13.6719 89.8279 13.3821 89.5595 12.9901C89.291 12.598 89.1568 12.1058 89.1568 11.5135V1.82955Z" fill="white"/>
</svg>
