<svg width="40" height="40" viewBox="0 0 40 40" fill="none" xmlns="http://www.w3.org/2000/svg">
<mask id="mask0_107_28" style="mask-type:alpha" maskUnits="userSpaceOnUse" x="0" y="0" width="40" height="40">
<rect width="40" height="40" transform="matrix(-1 0 0 1 40 0)" fill="#D9D9D9"/>
</mask>
<g mask="url(#mask0_107_28)">
<path d="M4.32333 12.575C4.48007 12.3946 4.67363 12.25 4.89098 12.1508C5.10833 12.0516 5.34442 12.0002 5.58333 12H28.615L28.94 10.06C29.0047 9.67079 29.2053 9.31719 29.5063 9.06206C29.8072 8.80693 30.1888 8.66681 30.5833 8.66663H34.3333C34.7754 8.66663 35.1993 8.84222 35.5118 9.15478C35.8244 9.46734 36 9.89127 36 10.3333C36 10.7753 35.8244 11.1992 35.5118 11.5118C35.1993 11.8244 34.7754 12 34.3333 12H31.995L28.895 30.6066L28.82 30.8133L28.73 31.065L28.53 31.3633L28.3717 31.55L28.05 31.7666L27.8633 31.875C27.6695 31.956 27.4617 31.9984 27.2517 32H8.91667C8.47464 32 8.05071 31.8244 7.73815 31.5118C7.42559 31.1992 7.25 30.7753 7.25 30.3333C7.25 29.8913 7.42559 29.4673 7.73815 29.1548C8.05071 28.8422 8.47464 28.6666 8.91667 28.6666H25.8383L26.115 27H7.25C6.84894 27 6.4613 26.8554 6.15823 26.5928C5.85515 26.3301 5.65695 25.967 5.6 25.57L3.93333 13.9033C3.89958 13.6669 3.91693 13.426 3.9842 13.1968C4.05148 12.9677 4.16712 12.7556 4.32333 12.575ZM7.505 15.3333L7.98 18.6666H13.9167V15.3333H7.505ZM15.5833 15.3333V18.6666H20.5833V15.3333H15.5833ZM15.5833 20.3333V23.6666H20.5833V20.3333H15.5833ZM22.25 15.3333V18.6666H27.25L27.4967 18.7166L28.06 15.3333H22.25ZM27.2267 20.3333H22.25V23.6666H26.6717L27.2267 20.3333ZM13.9167 23.6666V20.3333H8.22L8.695 23.6666H13.9167Z" fill="white"/>
</g>
</svg>
