<svg width="40" height="40" viewBox="0 0 40 40" fill="none" xmlns="http://www.w3.org/2000/svg">
<mask id="mask0_110_71" style="mask-type:alpha" maskUnits="userSpaceOnUse" x="0" y="0" width="40" height="40">
<rect width="40" height="40" fill="#D9D9D9"/>
</mask>
<g mask="url(#mask0_110_71)">
<path d="M39.3333 8.53351C37.8355 9.20032 36.2467 9.63801 34.6199 9.83204C36.3144 8.81143 37.6155 7.19526 38.2282 5.2696C36.6173 6.23021 34.8549 6.90702 33.0171 7.27078C31.52 5.66811 29.3874 4.6665 27.0269 4.6665C22.4947 4.6665 18.8202 8.35891 18.8202 12.913C18.8202 13.5595 18.8928 14.1888 19.0327 14.7925C12.2124 14.4485 6.1655 11.1654 2.11784 6.17606C1.41159 7.39404 1.00691 8.8108 1.00691 10.3219C1.00691 13.1831 2.45581 15.7071 4.65769 17.1861C3.35448 17.145 2.07995 16.7913 0.9405 16.1545C0.940032 16.189 0.940032 16.2236 0.940032 16.2583C0.940032 20.2539 3.76878 23.587 7.52284 24.3446C6.31439 24.6749 5.0468 24.7232 3.81691 24.4859C4.86113 27.7622 7.89191 30.1464 11.4828 30.2131C8.67425 32.4248 5.13566 33.7433 1.29097 33.7433C0.628469 33.7433 -0.0246557 33.7042 -0.666687 33.6281C2.96503 35.9679 7.27863 37.3332 11.913 37.3332C27.0078 37.3332 35.2621 24.767 35.2621 13.8694C35.2621 13.5117 35.2543 13.1561 35.2383 12.8025C36.8449 11.6353 38.2316 10.1897 39.3333 8.53351Z" fill="#55ACEE"/>
</g>
</svg>
